<svg xmlns="http://www.w3.org/2000/svg" width="274" height="141.885" viewBox="0 0 274 141.885"><g transform="translate(-946 -543.115)"><text transform="translate(946 553)" fill="#fff" font-size="18" font-family="SegoeUI-Bold, Segoe UI" font-weight="700"><tspan x="0" y="19">Indique para </tspan><tspan x="0" y="43">um amigo e ganhe um </tspan><tspan x="0" y="67">mês grátis!</tspan></text><g transform="translate(-54 395)"><text transform="translate(1009.533 275.8)" fill="#fff" font-size="12" font-family="SegoeUI, Segoe UI" opacity="0.5"><tspan x="0" y="0">e-mail@doseuamigo.com</tspan></text><g transform="translate(1000 255)" fill="none" stroke="#fff" stroke-width="1"><path d="M5,0H207a0,0,0,0,1,0,0V35a0,0,0,0,1,0,0H5a5,5,0,0,1-5-5V5A5,5,0,0,1,5,0Z" stroke="none"/><path d="M5,.5H206a.5.5,0,0,1,.5.5V34a.5.5,0,0,1-.5.5H5A4.5,4.5,0,0,1,.5,30V5A4.5,4.5,0,0,1,5,.5Z" fill="none"/></g></g><g transform="translate(20 25)"><path d="M0,0H63a5,5,0,0,1,5,5V30a5,5,0,0,1-5,5H0a0,0,0,0,1,0,0V0A0,0,0,0,1,0,0Z" transform="translate(1132 625)" fill="#ffba00"/><text transform="translate(1146 647)" fill="#fff" font-size="12" font-family="SegoeUI-Bold, Segoe UI" font-weight="700"><tspan x="0" y="0">Enviar</tspan></text></g><g transform="translate(1128.115 543.115)"><g transform="translate(44.101 88.296)"><path d="M248.8,492.526a1.793,1.793,0,1,0,.526,1.269A1.807,1.807,0,0,0,248.8,492.526Z" transform="translate(-245.74 -492)" fill="#ffba00"/></g><g transform="translate(0 18.922)"><path d="M82.295,145.212l-5.987-1.43v-2.375a11.844,11.844,0,0,0,5.536-10.017V124.7a11.838,11.838,0,0,0-20.707-7.847,15.821,15.821,0,0,0-15.176-11.418h0a15.821,15.821,0,0,0-15.186,11.449A11.837,11.837,0,0,0,10.042,124.7v6.688a11.844,11.844,0,0,0,5.536,10.017v2.375l-5.987,1.43A12.453,12.453,0,0,0,0,157.363v12.064a1.8,1.8,0,0,0,1.795,1.795h14.35v5.384A1.8,1.8,0,0,0,17.94,178.4H37.628a1.795,1.795,0,0,0,0-3.589H29.616v-7.9a1.795,1.795,0,0,0-3.589,0v7.9H19.734v-8.1a13.066,13.066,0,0,1,10.053-12.746l8.827-2.115,5.679,12.921a1.794,1.794,0,0,0,1.643,1.072h0a1.8,1.8,0,0,0,1.643-1.072l5.674-12.9,8.8,2.1a13.064,13.064,0,0,1,10.062,12.748v2a1.8,1.8,0,0,0,0,1.4v4.682H65.859v-7.9a1.795,1.795,0,0,0-3.589,0v7.9H53.48a1.795,1.795,0,0,0,0,3.589H73.909a1.8,1.8,0,0,0,1.795-1.795v-5.384H90.091a1.8,1.8,0,0,0,1.795-1.795V157.363A12.453,12.453,0,0,0,82.295,145.212ZM70,116.447a8.265,8.265,0,0,1,8.256,8.255v.625H73.122a22.174,22.174,0,0,1-11.046-2.948A8.271,8.271,0,0,1,70,116.447ZM61.744,131.1c.006-.183.011-4.825.011-4.825a25.764,25.764,0,0,0,11.368,2.644h5.133v2.474a8.256,8.256,0,0,1-16.512,0V131.1ZM33.757,121.23a12.2,12.2,0,0,1,24.408,0v.234L51.5,117.551a1.794,1.794,0,0,0-2.285.395,13.553,13.553,0,0,1-10.413,4.86h-5.05ZM13.63,125.147V124.7a8.256,8.256,0,0,1,16.179-2.323,22.175,22.175,0,0,1-11.046,2.948H13.63Zm0,6.244v-2.474h5.133a25.763,25.763,0,0,0,11.378-2.649v5.124a8.256,8.256,0,0,1-16.511,0Zm2.515,35.324v.919H10.768v-7.973a1.795,1.795,0,1,0-3.589,0v7.973H3.589V157.363a8.875,8.875,0,0,1,6.835-8.66l5.689-1.359,3.713,8.893A16.66,16.66,0,0,0,16.145,166.714Zm5.741-14.857-2.726-6.529c0-.043.006-.086.006-.129v-2.282a11.767,11.767,0,0,0,5.427,0v2.166c0,.034,0,.067,0,.1,0,.057.005.113.011.169Zm7.064-1.379a16.87,16.87,0,0,0-3.034,1.043l1.748-4.185,5.69,1.363a8.893,8.893,0,0,1,1.287.415Zm8.908-3.741a12.461,12.461,0,0,0-3.668-1.529l-6.007-1.439v-2.354a11.93,11.93,0,0,0,3.709-3.7,15.907,15.907,0,0,0,5.966,6.379ZM50.417,149.4l-4.481,10.191-4.488-10.211v-3.7a15.805,15.805,0,0,0,8.97.017Zm-4.456-6.652a12.218,12.218,0,0,1-12.2-12.2v-4.151h5.05a17.128,17.128,0,0,0,12.129-5.014l7.218,4.241v5.346A12.216,12.216,0,0,1,45.961,142.749Zm8.045,1.381h0a15.905,15.905,0,0,0,6.007-6.382,11.937,11.937,0,0,0,3.689,3.667v2.354l-6.007,1.439a12.464,12.464,0,0,0-3.688,1.542v-2.62Zm8.88,6.354-5.676-1.356a8.909,8.909,0,0,1,1.32-.429l5.676-1.36,1.755,4.2A16.872,16.872,0,0,0,62.887,150.484Zm4.393-5.1a1.8,1.8,0,0,0,.012-.2c0-.017,0-.034,0-.05v-2.216a11.763,11.763,0,0,0,5.427,0V145.2c0,.033,0,.065,0,.1l-2.74,6.561ZM88.3,167.633H84.707v-7.973a1.795,1.795,0,1,0-3.589,0v7.973H75.7v-.91a16.659,16.659,0,0,0-3.67-10.464l3.724-8.918,5.7,1.362a8.875,8.875,0,0,1,6.835,8.66Z" transform="translate(0 -105.437)" fill="#ffba00"/></g><g transform="translate(38.129 41.501)"><path d="M215.523,231.776a1.793,1.793,0,1,0,.526,1.269A1.808,1.808,0,0,0,215.523,231.776Z" transform="translate(-212.46 -231.25)" fill="#ffba00"/></g><g transform="translate(50.13 41.501)"><path d="M282.393,231.776a1.793,1.793,0,1,0,.526,1.269A1.807,1.807,0,0,0,282.393,231.776Z" transform="translate(-279.33 -231.25)" fill="#ffba00"/></g><g transform="translate(41.87 47.542)"><path d="M240.834,265.439a1.8,1.8,0,0,0-2.538,0,1.362,1.362,0,0,1-1.925,0,1.795,1.795,0,0,0-2.538,2.538,4.956,4.956,0,0,0,7,0A1.8,1.8,0,0,0,240.834,265.439Z" transform="translate(-233.307 -264.913)" fill="#ffba00"/></g><g transform="translate(71.179 9.691)"><path d="M399.646,54h-1.231a1.795,1.795,0,1,0,0,3.589h1.231a1.795,1.795,0,0,0,0-3.589Z" transform="translate(-396.62 -54)" fill="#ffba00"/></g><g transform="translate(79.887 9.691)"><path d="M448.167,54h-1.231a1.795,1.795,0,0,0,0,3.589h1.231a1.795,1.795,0,1,0,0-3.589Z" transform="translate(-445.141 -54)" fill="#ffba00"/></g><g transform="translate(76.148 13.429)"><path d="M426.106,74.831a1.8,1.8,0,0,0-1.795,1.795v1.231a1.795,1.795,0,1,0,3.589,0V76.626A1.8,1.8,0,0,0,426.106,74.831Z" transform="translate(-424.311 -74.831)" fill="#ffba00"/></g><g transform="translate(76.148 4.722)"><path d="M426.106,26.31a1.8,1.8,0,0,0-1.795,1.795v1.231a1.795,1.795,0,1,0,3.589,0V28.1A1.8,1.8,0,0,0,426.106,26.31Z" transform="translate(-424.311 -26.31)" fill="#ffba00"/></g><g transform="translate(7.079 9.691)"><path d="M42.469,54H41.239a1.795,1.795,0,1,0,0,3.589h1.231a1.795,1.795,0,0,0,0-3.589Z" transform="translate(-39.444 -54)" fill="#ffba00"/></g><g transform="translate(15.787 9.691)"><path d="M90.99,54H89.76a1.795,1.795,0,1,0,0,3.589H90.99a1.795,1.795,0,1,0,0-3.589Z" transform="translate(-87.965 -54)" fill="#ffba00"/></g><g transform="translate(12.048 13.429)"><path d="M68.929,74.831a1.8,1.8,0,0,0-1.795,1.795v1.231a1.795,1.795,0,0,0,3.589,0V76.626A1.8,1.8,0,0,0,68.929,74.831Z" transform="translate(-67.134 -74.831)" fill="#ffba00"/></g><g transform="translate(12.048 4.722)"><path d="M68.929,26.31A1.8,1.8,0,0,0,67.134,28.1v1.231a1.795,1.795,0,0,0,3.589,0V28.1A1.8,1.8,0,0,0,68.929,26.31Z" transform="translate(-67.134 -26.31)" fill="#ffba00"/></g><g transform="translate(44.148 6.835)"><path d="M247.795,38.087A1.8,1.8,0,0,0,246,39.882V44.6a1.795,1.795,0,1,0,3.589,0V39.882A1.8,1.8,0,0,0,247.795,38.087Z" transform="translate(-246 -38.087)" fill="#ffba00"/></g><g transform="translate(44.148)"><path d="M249.063.526A1.795,1.795,0,0,0,246,1.795,1.795,1.795,0,1,0,249.063.526Z" transform="translate(-246 0)" fill="#ffba00"/></g><g transform="translate(33.963 4.048)"><path d="M194.939,25.708l-2.626-2.626a1.795,1.795,0,1,0-2.538,2.538l2.626,2.626a1.795,1.795,0,0,0,2.538-2.538Z" transform="translate(-189.249 -22.556)" fill="#ffba00"/></g><g transform="translate(51.618 3.949)"><path d="M293.4,22.532a1.8,1.8,0,0,0-2.538,0l-2.714,2.714a1.795,1.795,0,0,0,2.538,2.538L293.4,25.07A1.8,1.8,0,0,0,293.4,22.532Z" transform="translate(-287.625 -22.006)" fill="#ffba00"/></g></g></g></svg>