<svg xmlns="http://www.w3.org/2000/svg" width="30" height="30" viewBox="0 0 30 30"><path d="M30.018,17.9a2.7,2.7,0,0,0-.684-1.026,3.142,3.142,0,0,0-1.026-.684,4.873,4.873,0,0,0-1.661-.244c-.928-.049-1.221-.049-3.567-.049s-2.638,0-3.567.049a6.373,6.373,0,0,0-1.661.293,2.7,2.7,0,0,0-1.026.684,3.142,3.142,0,0,0-.684,1.026,5.951,5.951,0,0,0-.293,1.661c-.049.928-.049,1.221-.049,3.567s0,2.638.049,3.567a6.373,6.373,0,0,0,.293,1.661,2.7,2.7,0,0,0,.684,1.026,3.143,3.143,0,0,0,1.026.684,5.951,5.951,0,0,0,1.661.293c.928.049,1.221.049,3.567.049s2.638,0,3.567-.049a6.373,6.373,0,0,0,1.661-.293,2.7,2.7,0,0,0,1.026-.684,3.143,3.143,0,0,0,.684-1.026,5.951,5.951,0,0,0,.293-1.661c.049-.928.049-1.221.049-3.567s0-2.638-.049-3.567A6.434,6.434,0,0,0,30.018,17.9ZM23.08,27.675a4.544,4.544,0,1,1,4.544-4.544A4.5,4.5,0,0,1,23.08,27.675Zm4.739-8.208a1.075,1.075,0,1,1,1.075-1.075A1.084,1.084,0,0,1,27.82,19.467Z" transform="translate(-8.08 -8.131)" fill="#fff" fill-rule="evenodd"/><path d="M27.632,24.7a2.932,2.932,0,1,0,2.932,2.932A2.879,2.879,0,0,0,27.632,24.7Z" transform="translate(-12.632 -12.632)" fill="#fff" fill-rule="evenodd"/><path d="M15,0A15,15,0,1,0,30,15,15.035,15.035,0,0,0,15,0Zm8.844,15.244c0,2.2,0,2.541-.049,3.42a7.7,7.7,0,0,1-.391,2.15,4.6,4.6,0,0,1-2.59,2.59,6.26,6.26,0,0,1-2.15.391c-.928.049-1.27.049-3.664.049s-2.687,0-3.664-.049a7.7,7.7,0,0,1-2.15-.391,4.6,4.6,0,0,1-2.59-2.59,6.26,6.26,0,0,1-.391-2.15c-.049-.928-.049-1.27-.049-3.664s0-2.687.049-3.664A7.7,7.7,0,0,1,6.6,9.186,4.6,4.6,0,0,1,9.186,6.6a6.26,6.26,0,0,1,2.15-.391c.928-.049,1.221-.049,3.42-.049h.44c2.2,0,2.541,0,3.42.049a7.7,7.7,0,0,1,2.15.391,4.6,4.6,0,0,1,2.59,2.59,6.26,6.26,0,0,1,.391,2.15c.049.928.049,1.221.049,3.42v.489Z" fill="#fff" fill-rule="evenodd"/></svg>