<svg xmlns="http://www.w3.org/2000/svg" width="86.641" height="20.793" viewBox="0 0 86.641 20.793"><g transform="translate(0.014)"><g transform="translate(-0.014)"><path d="M73.7,14.3c.313-2.655,1.919-5.234,3.679-5.234,0,0,1.937,0,1.328,3.838a10.371,10.371,0,0,1-.541,2.08,1.768,1.768,0,0,0-1.353.49,1.223,1.223,0,0,0-.339.8,1.635,1.635,0,0,0,.246,1.057,2.66,2.66,0,0,1-1.767.913c-1.261,0-1.566-1.285-1.252-3.94M8.618.94a9.128,9.128,0,0,1-2.538.8.621.621,0,0,0-.448.406c-.11.322-.575,1.912-.711,2.326a.594.594,0,0,1-.6.406c-.6-.042-2.892-.329-3.2-.355a.6.6,0,0,0-.575.322A7.106,7.106,0,0,0,0,7.716.586.586,0,0,0,.472,8.2C.708,8.24,2.764,8.536,3,8.57a.591.591,0,0,1,.474.727C1.7,16.23,1.953,20.761,7.981,20.761c5.006,0,8.794-6.257,10.553-12.218a13.643,13.643,0,0,1,1.26,1.217,1.054,1.054,0,0,1,.034,1.235c-1.269,1.86-5.682,9.022.727,9.766,2.334.261,4.321-1.125,5.952-3.137.136,1.328.888,3.036,3.89,3.036,2.579,0,4.321-1.969,5.4-3.831-.043.17-.879,3.831,2.223,3.831,1.556,0,3.213-1.2,4.558-2.553-.1.44-.2.879-.3,1.336a.819.819,0,0,0,.55.972,4.28,4.28,0,0,0,3.213-.085.819.819,0,0,0,.448-.566c.161-.72.566-2.478,1.218-4.922h.025c.583,3.323,2.571,5.809,5.868,5.809,2.4,0,4.346-1.4,5.911-3.526.388,2.173,1.581,3.636,4.084,3.636,2.41,0,4.363-1.421,5.936-3.552.507,2.384,1.894,3.552,4.65,3.552a9.239,9.239,0,0,0,5.514-1.987c0-.008-.009-.008-.009-.016a4.329,4.329,0,0,1-.482-2,4.385,4.385,0,0,1,3.847-4.346h.025c.016-.2.025-.4.025-.583,0-5.276-5.1-5.276-5.1-5.276A8.59,8.59,0,0,0,69.309,14.3c-1.2,2.046-2.664,3.67-4.321,3.915-2.723.406-2-4.245-.55-9.082a.49.49,0,0,1,.465-.347,25.364,25.364,0,0,0,3.772-.279.494.494,0,0,0,.372-.3,4.229,4.229,0,0,0,.3-1.691.491.491,0,0,0-.516-.482c-.879.059-1.81.077-2.731.068a.485.485,0,0,1-.457-.652A27.3,27.3,0,0,1,66.729,2.6a.656.656,0,0,0-.372-.879,5.475,5.475,0,0,0-3.188-.262.659.659,0,0,0-.465.381A21.126,21.126,0,0,0,61.31,5.566a.486.486,0,0,1-.5.338c-.5-.034-.888-.068-1.142-.084a.478.478,0,0,0-.482.262,3.05,3.05,0,0,0-.246,1.785.474.474,0,0,0,.389.4c.2.043.4.077.592.11a.48.48,0,0,1,.389.6,37.624,37.624,0,0,0-.947,5.716C58.13,16.822,56.693,17.853,55,18.107c-1.885.279-3.382-1.776-3.619-4.66V13.44a11.966,11.966,0,0,0,6.063-6.925.661.661,0,0,0-.363-.811,4.687,4.687,0,0,0-3.289-.042.673.673,0,0,0-.448.491c-.922,4.084-3.737,5.133-4.3,5.293-.043.016-.245.068-.414.109C49.32,8.815,51.51,2.98,51.653,2.6a.7.7,0,0,0-.609-.931,3.768,3.768,0,0,0-1.91.77,5.623,5.623,0,0,1-1.717.626.479.479,0,0,0-.363.33,2.176,2.176,0,0,0-.068.229,1.118,1.118,0,0,1-.043.11A112.429,112.429,0,0,0,43.35,15.04c-1.192,1.758-2.469,2.891-3.416,2.891-1.59,0-.068-4.642.448-6.088a.615.615,0,0,0-.245-.718,4.364,4.364,0,0,0-2.993-.575.71.71,0,0,0-.541.431c-3.974,9.479-5.945,7.687-5.75,4.844.186-2.883,3.027-6.7,5.826-6.7a9.063,9.063,0,0,1,4.447,1.218.692.692,0,0,0,.77-.059,3.512,3.512,0,0,0,.752-.8.778.778,0,0,0-.034-.888c-.55-.727-2.021-2.139-5.293-2.139-4.067,0-9.774,3.459-10.662,8.709-4.642,6.384-6.781,2.52-3.8-1.86,1.581-2.325,2.148-3.272-.55-5.4s-1.969-2.266-1.969-3.526-2.469-2.46-3.425.329a2.73,2.73,0,0,0,.524,2.748C16.2,11.36,12.775,17.71,9.377,18.217c-2.731.406-1.691-4.481-.245-9.318A.482.482,0,0,1,9.6,8.553a24.391,24.391,0,0,0,3.779-.279.47.47,0,0,0,.363-.288A9.167,9.167,0,0,0,14.3,5.551a.49.49,0,0,0-.516-.482c-.879.05-1.81.068-2.732.068a.484.484,0,0,1-.456-.652c.355-1.015.931-2.875,1.1-3.34A.852.852,0,0,0,10.948,0a.656.656,0,0,0-.068,0A4.9,4.9,0,0,0,8.618.94" transform="translate(0.014)" fill="#fff"/><path d="M736.72,128.488a3.038,3.038,0,1,0,3.038-3.038,3.038,3.038,0,0,0-3.038,3.038" transform="translate(-656.155 -111.731)" fill="#ffba00"/></g></g></svg>