<svg xmlns="http://www.w3.org/2000/svg" width="130" height="20" viewBox="0 0 130 20"><g transform="translate(-534 -2100.66)"><path d="M3.124.3a4.277,4.277,0,0,0-1.818.779C-.771,2.9.073,4.716,1.046,6.859a26.233,26.233,0,0,0,5.324,7.4,22.606,22.606,0,0,0,1.818,1.558,31.753,31.753,0,0,0,4.934,3.116A16.552,16.552,0,0,0,15,19.778a2.487,2.487,0,0,0,2.142-.195,4.666,4.666,0,0,0,2.467-2.857,1.692,1.692,0,0,0-.844-1.753l-.779-.584a26.05,26.05,0,0,0-2.4-1.623c-2.078-.974-2.6,1.039-3.376,1.428-1.1.519-3.181-1.039-3.7-1.493A8.129,8.129,0,0,1,6.175,9.715c-1.818-3.506,2.727-2.4,1.1-5.453C6.825,3.613,6.5,3.093,6.11,2.574c-.065-.13-.195-.26-.26-.39a2.059,2.059,0,0,1-.325-.39C4.942,1.145,4.228.107,3.124.3Zm8.5,4.48a2.772,2.772,0,0,1,2.4,1.234,3.177,3.177,0,0,1,.649,1.234c.13.519.13,1.3-.454,1.3s-.519-.779-.649-1.234c-.39-1.3-1.493-1.363-2.142-1.558-.519-.195-.519-.909.195-.974Zm-.974-2.4c.519-.26,2.272.325,2.727.584a6.073,6.073,0,0,1,3.571,4.869c.065.519.13,1.3-.26,1.428-.909.26-.584-.649-1.039-2.272-.519-1.948-1.623-2.727-3.506-3.311-.909-.26-1.753-.13-1.818-.779a.514.514,0,0,1,.325-.519Zm-.649-2.4a6.889,6.889,0,0,1,2.272.195,9.739,9.739,0,0,1,4.739,2.792l.519.714a8.909,8.909,0,0,1,1.818,4.415,7.455,7.455,0,0,1,.065,1.234c0,.39.065.844-.39.909-.519.065-.649-.195-.649-.584A10.185,10.185,0,0,0,17.8,6.534a7.693,7.693,0,0,0-1.883-3.116,9.709,9.709,0,0,0-5.259-2.272c-.325-.065-.844,0-.974-.26A.658.658,0,0,1,10.006-.023Z" transform="translate(533.978 2100.726)" fill="#fff" fill-rule="evenodd"/><text transform="translate(559 2115)" fill="#fff" font-size="12" font-family="SegoeUI, Segoe UI"><tspan x="0" y="0">+55 82 9 8114.1110</tspan></text></g></svg>