<svg xmlns="http://www.w3.org/2000/svg" width="30" height="30" viewBox="0 0 30 30"><path d="M15,0A15,15,0,1,0,30,15,15.035,15.035,0,0,0,15,0Zm1.466,19.2a3.17,3.17,0,0,1-2.638-1.319s-.635,2.492-.782,2.98a11.931,11.931,0,0,1-1.954,3.518c-.1.1-.244.049-.244-.049a11.071,11.071,0,0,1,.049-4.1c.2-.879,1.368-5.863,1.368-5.863a4.15,4.15,0,0,1-.342-1.71c0-1.612.928-2.785,2.1-2.785a1.45,1.45,0,0,1,1.466,1.612,26.507,26.507,0,0,1-.928,3.811,1.654,1.654,0,0,0,1.71,2.052c2.052,0,3.42-2.638,3.42-5.717,0-2.345-1.612-4.153-4.5-4.153A5.125,5.125,0,0,0,9.87,12.655a3.029,3.029,0,0,0,.733,2.1c.2.244.244.342.147.586-.049.2-.147.684-.2.879a.368.368,0,0,1-.537.293c-1.515-.635-2.2-2.248-2.2-4.1,0-3.078,2.59-6.743,7.72-6.743,4.1,0,6.84,2.98,6.84,6.156C22.28,16.026,19.935,19.2,16.466,19.2Z" fill="#fff" fill-rule="evenodd"/></svg>