<svg xmlns="http://www.w3.org/2000/svg" width="30" height="30" viewBox="0 0 30 30"><path d="M15,0A15,15,0,1,0,30,15,15.035,15.035,0,0,0,15,0Zm7.476,11.189A10.929,10.929,0,0,1,11.482,22.671,10.65,10.65,0,0,1,5.57,20.912,7.752,7.752,0,0,0,11.287,19.3a3.843,3.843,0,0,1-3.616-2.687,4.248,4.248,0,0,0,1.759-.049A3.868,3.868,0,0,1,6.352,12.7a4.3,4.3,0,0,0,1.759.489A3.884,3.884,0,0,1,6.938,8.013,11.058,11.058,0,0,0,14.9,12.068a3.861,3.861,0,0,1,3.762-4.739A3.989,3.989,0,0,1,21.5,8.55a8.169,8.169,0,0,0,2.443-.928,3.913,3.913,0,0,1-1.71,2.15,8.1,8.1,0,0,0,2.2-.586A8.444,8.444,0,0,1,22.476,11.189Z" fill="#fff" fill-rule="evenodd"/></svg>