<svg xmlns="http://www.w3.org/2000/svg" width="30" height="30" viewBox="0 0 30 30"><path d="M26.3,30.568l5.423-2.834L26.3,24.9Z" transform="translate(-13.45 -12.734)" fill="#fff" fill-rule="evenodd"/><path d="M15,0A15,15,0,1,0,30,15,15.035,15.035,0,0,0,15,0Zm8.844,19.055c-.147,1.319-.489,1.71-.684,1.857a3.439,3.439,0,0,1-1.857.44c-1.368.1-3.713.147-6.254.147s-4.886-.049-6.254-.147a3.316,3.316,0,0,1-1.857-.44c-.244-.2-.537-.537-.684-1.857a44.971,44.971,0,0,1,0-8.111c.147-1.319.489-1.71.684-1.857a3.439,3.439,0,0,1,1.857-.44c1.368-.1,3.713-.147,6.254-.147s4.886.049,6.254.147a3.316,3.316,0,0,1,1.857.44c.244.2.537.537.684,1.857A44.972,44.972,0,0,1,23.844,19.055Z" fill="#fff" fill-rule="evenodd"/></svg>